<svg xmlns="http://www.w3.org/2000/svg" viewBox="0 0 1440 900" role="img"><rect width="1440" height="900" fill="#06101c"/><defs><linearGradient id="g" x1="0" y1="0" x2="1" y2="1"><stop stop-color="#38d6d1"/><stop offset="1" stop-color="#5b8cff"/></linearGradient><linearGradient id="p" x1="0" y1="0" x2="1" y2="1"><stop stop-color="#a478ff"/><stop offset="1" stop-color="#d16fff"/></linearGradient></defs><text x="70" y="65" fill="#38d6d1" font-family="Arial" font-size="14" letter-spacing="2">EVIDENCE, NOT GUESSES</text><text x="70" y="130" fill="#f4f8fb" font-family="Arial" font-size="48" font-weight="700">The winning hypothesis explains</text><text x="70" y="185" fill="#f4f8fb" font-family="Arial" font-size="48" font-weight="700">the code change and observed failure.</text><rect x="60" y="235" width="650" height="600" rx="24" fill="#0d2035" stroke="#29455d"/><rect x="90" y="355" width="560" height="7" rx="4" fill="#183149"/><rect x="90" y="355" width="560" height="7" rx="4" fill="#64e6a3"/><text x="90" y="320" fill="#f4f8fb" font-family="Arial" font-size="19">1. feature_transformation</text><text x="570" y="320" fill="#64e6a3" font-family="monospace" font-size="17">1.0000</text><rect x="90" y="485" width="560" height="7" rx="4" fill="#183149"/><rect x="90" y="485" width="337" height="7" rx="4" fill="#8d9fff"/><text x="90" y="450" fill="#f4f8fb" font-family="Arial" font-size="19">2. source_data_quality</text><text x="570" y="450" fill="#8d9fff" font-family="monospace" font-size="17">0.6025</text><rect x="90" y="615" width="560" height="7" rx="4" fill="#183149"/><rect x="90" y="615" width="155" height="7" rx="4" fill="#a478ff"/><text x="90" y="580" fill="#f4f8fb" font-family="Arial" font-size="19">3. schema_contract</text><text x="570" y="580" fill="#a478ff" font-family="monospace" font-size="17">0.2775</text><rect x="745" y="235" width="635" height="600" rx="24" fill="#0d2035" stroke="#29455d"/><text x="785" y="285" fill="#64e6a3" font-family="Arial" font-size="14">VALIDATED PATCH</text><text x="785" y="335" fill="#f4f8fb" font-family="Arial" font-size="29" font-weight="700">customer_features.py</text><text x="785" y="400" fill="#9eb2c6" font-family="monospace" font-size="17">def calculate_monthly_spend(</text><text x="820" y="445" fill="#9eb2c6" font-family="monospace" font-size="17">total_spend: float,</text><text x="820" y="490" fill="#9eb2c6" font-family="monospace" font-size="17">account_age_months: int,</text><text x="785" y="535" fill="#9eb2c6" font-family="monospace" font-size="17">) -&gt; float:</text><rect x="775" y="565" width="565" height="36" fill="#10382c"/><text x="790" y="589" fill="#87edb5" font-family="monospace" font-size="17">+   if account_age_months &lt;= 0:</text><rect x="775" y="615" width="565" height="36" fill="#10382c"/><text x="790" y="639" fill="#87edb5" font-family="monospace" font-size="17">+       return 0.0</text><text x="790" y="690" fill="#9eb2c6" font-family="monospace" font-size="17">    return total_spend / account_age_months</text><rect x="785" y="750" width="550" height="55" rx="13" fill="#102b2b" stroke="#2a6650"/><text x="810" y="785" fill="#64e6a3" font-family="monospace" font-size="18" font-weight="700">F1  0.771  →  0.842    policy passed</text></svg>
